<?xml version="1.0" encoding="utf-8"?>
<!-- Generator: Adobe Illustrator 19.0.0, SVG Export Plug-In . SVG Version: 6.00 Build 0)  -->
<svg version="1.1" id="Layer_1" xmlns="http://www.w3.org/2000/svg" xmlns:xlink="http://www.w3.org/1999/xlink" x="0px" y="0px"
	 viewBox="194 -104 1000 1000" style="enable-background:new 194 -104 1000 1000;" xml:space="preserve">
<style type="text/css">
	.st0{fill:#FFFFFF;}
</style>
<g>
	<g id="_x30_204-spooky-werewolf">
		<g>
			<path class="st0" d="M626.5,145.1c22.5,2.1,47.1,8.3,66.8,19.8c3.5,2,7,3.4,10.5,5.7c5.7,3.7,10,9.6,14.7,14.4
				c5.7,5.7,11.7,11.2,16.3,17.8c9.2,13.1,17.4,26.8,26.6,39.9c15.1,21.6,37.4,42.6,45.5,68.1c-7.3-4.7-18.8-7.2-27.3-5.2
				c-10.4,2.5-11,14.1-2.2,19.5c11.4,7.1,22.2,18.2,34.7,23.2c4.2,1.7,8.5,3.6,12.8,5.1c8.4,2.9,17,3.3,25,7.2
				c13.7,6.5,27.6,13.7,42,17.8c15.9,4.5,28.5,15.3,43.7,21.4c29.8,11.8,61.5,18.7,90.2,33c-18.6,19.4-40.7,34.4-67.3,40.2
				c-32,7-70.6,1.4-103.3,1.4c-18.1,0-28.7-3.4-35.2,15.8c-3,9-4.4,19.6-6.9,29.1c-3.5,13.1,21.1,13.5,28.5,13.7
				c7.3,0.3,14.6,0.2,21.8-1c65.4-10.7,130.3-27.2,187.3-62c4.1-2.5,8.2-5.4,12.5-7.7c3.4-1.8,6.9-4.2,9.8-6.8
				c4.5-4.2,6.4-10.2,7.3-16.2c3.5-23.2-12.3-42.5-33.9-48.2c-6.4-1.7-12.8-3.4-18.5-6.8c-1.8-1.1-8.2-5.3-7.3-7.9
				c0.7-2,7.9-1.4,9.6-1.8c11.2-2.7,21.6-11,31.5-16.5c12.1-6.8,1.9-34.4-4.6-45c-6.8-11.2-34.3-16.5-46.5-22.5
				c-13.5-6.6-26.8-13.7-40.7-19.6c-32.7-13.8-69.5-15-104.5-10.6c-9.8,1.2-19.6,3.2-28.9,6.3c-9.4,3.1-10.9,8.7-16.6-1.2
				c-7.4-12.9-14.8-25.8-22.5-38.5c-17.6-28.9-37.1-57.1-61.6-80.6c-11.6-11-25.6-25.5-41.7-27.5c-13-1.6-28.9-2.5-40.7-7.1
				c-10.4-4.1-26.5,0-34.8-8.9c1.1-13.2-0.6-26.6-6.6-38.5c-4.1-8.2-10.1-15.4-16.2-22.2c-5.1-5.7-7.9-10.3-16.4-10.3
				c-4.3,0-11.3,3.4-13.8-0.8c-0.2-0.3-0.4-0.7-0.5-1.1c-1.4-4.5-0.1-9.1-1.4-13.7c-1.3-4.5-3.3-8.7-5.6-12.7
				c-5-8.6-11.7-16-18.8-22.9c-14-13.5-30.3-24.6-43.5-39c-14.9-16.3-26.3-32-49.4-35c-23-2.9-34.1,2.6-44.1,23.6
				c-15.8,33-39.7,63.2-53.2,97.9c-7.9,20.5-16.6,41.5-10.3,63.7c14.9,7.7,33.9-3,49.9,0c-3.2,12.6-34.1,95.4,10,72.3
				c6-3.1,36-14.6,29,0.2c-6.6,13.9-15.9,26.2-18.6,41.7c-5.7,31.5,64.8,0.2,60.1,37.3c-1.7,13.5-3.2,31.9-15.6,38.7
				c-10.5,5.7-15.3,15.8-28.8,14.8c6.1-17.1,10.7-30.2,4.2-47.5c-4.8-12.9-35.9-12.8-48.6-13.5c2.7-10.1,16.2-47.9,6-55.2
				c-9.5-6.8-23.7-0.1-34.2-4.1c-12.7-4.9-2.7-20.6,0.8-29.1c4.4-10.7,9.6-33.4,2.4-44.7c-15.7-6-37.3,9.4-48.3,2.1
				c-11.4-7.7-27.9-4.5-40.4-1.9c-15.2,3.2-25,16.2-31.3,30.4c-7.6,17.2-2.5,27.5,4.3,43.5c6.5,15.2,16,28.9,26.5,41
				c11.9,13.7,18.6,30.1,28.2,45.7c19.8,34.4,35.2,71.2,47.6,108.9c11.4,34.3-1.2,70-15.2,102.1c-3,6.8-8.7,17.9-0.3,22.2
				c5.8,3,16.2,6.8,22.6,4.1c5.9-2.6,9.3-10,11.3-15.6c2-5.5,4.5-10.2,8.4-14.8c4.4,5.2,0.2,20.1-1.1,26.1
				c-2.3,11.3-7,21.9-11.2,32.6c-3.6,9-8.6,16.6-13.3,25c-5.1,9.2-16.4,20.4-12.9,31.9c3.4,11.2,17.5,8.8,25.4,4.5
				c4-2.2,7.8-4.8,11.5-7.5c2.2-1.6,3.3-4.3,5.2-6.2c1.5-1.6,4-5,6.4-5.1c4.7-0.1-18,70.8-20.6,77.7c-4.3,11.3-26.4,46.2-19.4,57.6
				c5.8,20.7,35.3,4,47.3,4.4c0.2,0,0.3,0.2,0.4,0.4c1.2,2-0.9,7.2-1.4,9.2c-1.5,5.8-3.4,11.4-5.4,17c-4.5,12.9-9.1,26.1-15.2,38.3
				c-3,6.1-5.2,12.7-9.3,18.2c-4.1,5.6-8.5,11-12.6,16.5c-6.5,8.6-17.9,22.7-5.9,31.5c4.6,3.3,10.4,1,15.5,2.5
				c5.3,1.6,8,3.1,14.1,1.6c20.3-4.8,48.5,2,66.5-9.1c3.4-2.1,8.5-5.5,8.1-10.2c-0.3-3.7-4.1-6.3-7-8.1c-8.3-5-18.9-8.6-28.4-10.6
				c-3.5-0.8-4.3-2.1-1.6-5c2.3-2.6,4-5.3,5.7-8.4c3.9-7,7.1-14.4,9.7-22.1c5.1-15.2,7.5-31.4,6.6-47.4c-0.2-2.8-0.4-5.6-0.8-8.4
				c-1.9-14.5-3.2-32.9-14.5-43.6c-9.7-2-15.5,6.7-24.9,5.5C406,634.1,419,587.7,419,538c0-7.1-0.5-48.8-19.1-30.2
				c-3.6,3.7-3.6,10.3-4.9,15c-0.6,2.2-1.4,4.9-3.3,6.3c-1.6,1.2-5.8,2.2-6.4-0.1c-0.3-1.1,0.4-2.1,0.9-3c1.7-3.3,3.9-6.5,4.9-10.1
				c1.2-3.9,2-7.9,2.6-12c1.3-8.3,1.7-16.6,1.6-25c-0.2-16.9-2.3-33.8-3.5-50.6c-0.3-4.6-0.6-9.3-0.7-13.9
				c-0.3-17.3-7.9-32-8.4-49.1c-0.3-11.3-5.2-12.1-11.1-21c-4-6.1-5.6-14.7-8.1-21.4c-13.3-34.9-31.3-64.8-49.8-96.3
				c-8-13.6-19.3-25.1-28.2-38.1c-6.9-10.1-15.1-22.6-13.6-35.4c0.9-8.1,7.2-5.1,13.4-3.2c6.8,2,13.3,5,19.5,8.3
				c11.1,5.9,11.8,8.3,17.2,19.6c8.1,17.2,19.6,32.7,27.6,50c14,30,20.5,57.3,42.6,83.5c5.4,6.3,17.4,11.6,25.9,13.5
				c6.3,1.4,10.2-2,14.7,3.3c2.9,3.5,6,6.7,10.7,7.6c20.8,4.2,45.4-13,49.8-33.4c6.2-28.6,13.1-60,3.7-88.8
				c-8.8-26.8-9.8-55.2-26-79.3c-13.4-19.9-22-42.8-37.6-61.6c-16-19.4-36.6-32.4-33.8-61c6.1-16.1,38-48.5,51.2-24.3
				c9,16.5,11.2,20.3,28,28.2c12.8,6.1,26.1,4.4,40,4.4c11.9,0,13.1-1.8,14.3,13.9c1.1,14.6-3.1,28.9-5.2,43.2
				c-1.7,11.3,15.1,20.5,25.5,13.5c7.5-5.1,4.5-17,9.6-23.7c4.9-6.5,19.6,10.9,22.2,15.9c6.2,12.1,0.7,23-5,33.9
				c-5.5,10.4-11.3,30.8,6.9,30.1C600.5,146.1,612.5,143.7,626.5,145.1z M1016.8,327.5c3.5-0.9,4.8,1.2,7.5,2.5
				c3.8,1.9,8.4,3,12.6,2.9c0.4,0-2.2,5-2.6,5.4c-1.7,1.9-4,2.8-6.2,3.8c-2.6,1.2-7.6,3.5-10.5,1.7c-0.6-0.4-1-0.9-1.4-1.6
				C1014.2,338.3,1016,331.6,1016.8,327.5z M997.6,327c0.3,4.1,0.7,9.3,2.3,13.1c1.8,4.3,5.2,7.6,6.4,12.3
				c-5.7-0.4-17.2,5.3-21.5,1.9c-1.3-1-1.9-2.8-1.6-5.7c0.6-5.4-1.7-10.5-3.9-15.4c-2.3-5.1-5.1-10-7.3-15.2
				c-0.7-1.7-3.9-15.3-4.5-15.5C977.6,306.5,996.7,314.5,997.6,327z M945.8,300.6c1.4,9.4-1,18.9,2.2,27.9
				c3.5,9.9,8.1,19.4,11.3,29.4c0.1,0.3-10.3-3.8-11.2-4.2c-2.8-1.4-6.6-1.5-8.9-3.4c-0.5-0.4-0.9-0.9-1.3-1.4
				c-2.2-3.1-2.1-7.6-2.4-11.2c-0.4-5.4-2.4-9.6-4.3-14.7c-1.1-2.9-13.4-34.5-13.6-34.5C927.4,287.4,943.9,288.2,945.8,300.6z
				 M884.5,285.9c14.1,0,13.7,10.2,16.6,22.2c4.4,9,9.4,17.6,11.1,27.7c-4.9-2.3-13-4.1-16.7-8.2c-0.8-0.8-1.3-1.8-1.7-2.8
				c-2.1-6.6-0.4-12.7-3.4-19C889.7,304.3,882.8,285.9,884.5,285.9z M859.5,291.4c0.9,8.7,3.1,17.7,8.3,24.9
				c1.2,1.7-9.2,2.7-10.8,1.9c-3.5-1.8-5.6-6-7.6-9c-1.1-1.6-2.1-3.8-3.6-5c-1.6-1.3-4.8-1.6-5.8-3.3c-0.2-0.3-0.4-0.6-0.5-0.9
				C835.7,291.4,859.6,292.6,859.5,291.4z M366.9,70.8c-2.8,0.2-8.8,2.7-11.2,1c-0.1-0.1-0.3-0.2-0.4-0.3c-3.3-3.5,2.7-15.4,4-18.9
				c1.3-3.6,2.4-7.3,3.8-10.8c3.2-8.1,8.4-0.1,10.2,4.4c2.8,6.9,3.4,15.7,9.5,20.7C378.4,70.6,372.4,70.5,366.9,70.8z M335.8,144.5
				c0.2-0.7-8.1-13-8.9-15c-1.3-3-2.4-4.4-1-6.3c0.2-0.3,0.5-0.6,0.8-0.9c2.7-2.6,11.3-3.6,14.6-2.8
				C338.9,127.8,338.2,136.4,335.8,144.5z M369,213.8c-1.3,2.9-3.4,3-6.8-3.5c-2.6-4.9-2-10.9-4.3-15.9c4.6,0,9.2,0,13.9,0
				C371.2,194.4,371.4,208.6,369,213.8z M405.5,283.6c-0.4,0.3-0.8,0.5-1.2,0.7c-9,4.4-14.7-15.1-16.5-20.5
				c-1.6-4.7-5.1-8.8,1.6-9.2c4.6-0.3,8.2,2.3,12.4,3.4c3.8,1.1,7.9,0.7,11.5,2.9C415.2,262,407.7,282,405.5,283.6z M438.9,183.9
				c1-2.1,7.9-18.7,11.5-16.8c5.7,3,11.5,31.8,12.9,38.4c-7.6-3.3-16.1-2.2-24.1-3.7c-2.8-0.5-4.5-1.4-5.4-2.6
				C430.9,195.4,436.7,188.7,438.9,183.9z M400.5,123.8c0.5-1.7,4.9-20.7,4.5-20.8c11.4,5,13.8,19.5,24.9,24.9
				c-9,8-22.1,8.6-33.2,11.5c0-0.1,0-0.3,0-0.4C396.6,132.7,398.7,129.4,400.5,123.8z M720.4,243.4c-4.2-4.2-8.8-8-13.3-11.8
				c-13.9-11.7-25.8-26.4-37.2-40.4c-6.9-8.5-13.2-20-23.6-24.7c-8.6-3.9-23.4,1.1-28.2,9.1c-5.6,9.3-7.7,19.3-8,30
				c-0.4,12.2-3.9,24.8-1.7,37c1.7,10,9.9,18.5,16.1,26.2c3.8,4.7,6.2,7.1,11.4,9.8c5.8,3,10,7.1,16.4,9.2c4.2,1.4,8.5,2.6,12.9,3.5
				c9.8,2,20,2.7,30,1.9c10.9-0.9,23.1-4.1,30.6-12.5c3.8-4.2,6-10.7,6.2-16.9c0.1-3.4-0.4-6.8-1.7-9.7
				C728.4,249.7,723.7,246.7,720.4,243.4z M646.1,255.4c-0.1-0.1-0.2-0.1-0.3-0.2c-9.4-6.1-10.3-18-11.2-28.1
				c-0.8-8.5-0.1-17,0.1-25.5c0.1-2.3-2.9-10.7,0.6-11.5c3.2-0.7,7,7.8,8,9.9c2.1,4.3,3.6,8.9,5.7,13.3c1.7,3.6,7.3,8.3,8.2,11.6
				c3.7,13.2,16.2,22.5,19.2,35.8C666.6,257.6,655.4,261.2,646.1,255.4z M558.5,415.8c-0.8-5-1.4-10.2-4-14.7
				c-0.2-0.3-0.4-0.7-0.7-1c-4.1-6.1-18.1-12-22-2.6c-4.2,10.2-6.2,15.9-3.5,27.9c3.9,17.4,7.9,34.8,11.9,52.2
				c1.6,6.8,4.6,13.8,12.1,15.6c13.1,3.1,15.1-7.1,15.8-17.7c0.9-13.8-0.2-30.6-4.7-43.8C561.7,426.3,559.5,421.7,558.5,415.8z
				 M480.4,585.3c6.7-6.5,8.2-16.6,8.5-25.5c0.3-10.4-1.1-20.7-2.6-30.9c-1.2-8-0.4-17-5.1-24c-0.2-0.3-0.5-0.7-0.7-1
				c-5.5-6.5-19.1-8.4-24.4-0.9c-3.9,5.4-4.2,16.6-4.3,22.9c-0.4,17.6,1.8,34,6.1,50.9C460,585.9,472.9,592.6,480.4,585.3z
				 M1092.3,701.5c9.9-4.9,19.2-13.1,26.3-21.4c4.5-5.3,5.4-8.7,6.6-15.2c1.4-7.3,5.9-14,5-21.7c-2.6-21.1-34.8-24-50.3-29.1
				c-4.6-1.5-9.8-2.6-13.9-5.4c-1.4-0.9-9.2-10-9.8-9.7c14.3-4.3,34.4-8.9,41.4-23.9c11.3-24.2-14-26.4-31.2-26.1
				c-20.4,0.4-39.9-4.7-57.4-15.4c-10.4-6.3-21-21.5-33.5-23.4c-3-0.5-5.2,0.2-6.6,1.6c-4.7,4.5-1.5,16.7,2.6,20.9
				c6,6.3,10.1,9.9,17.2,16.6c7.4,6.9,18.6,15.1,28.3,17.7c8,2.2,20.4,1.9,25.3,9.8c-13,3.5-28.7,7.7-34.3,21.5
				c-6,14.7,10.7,21.7,22.2,23.9c8,1.5,15,5.4,22,9.3c3.4,2,6.9,3.9,10.5,5.6c3.7,1.7,7.6,2.7,11.3,4.5c2.3,1.1,4,3.1,6.2,4.3
				c2.9,1.5,6.3,2.1,9.4,2.8s6.8,1,9.8,2.2c0.3,0.1,7,2.7,3.8,4.3c-5.7,2.8-11.7,7.8-16.4,12.2c-6.7,6.2-14.2,11.7-21.4,17.2
				c-6.2,4.8-12.6,11.1-12,19.6c3.3,29.1,37.7,27.7,52.6,47.1c-6.4,3.7-14.6,5.7-19.3,11.9c-5.8,7.7-4.9,19.5,6.2,21
				c19.8,2.6,33.7-9.3,49.8-18.4C1188.5,740.2,1106.6,713.3,1092.3,701.5z M658.8,615.8c1.7-10.2,2.8-20.5,3-30.8
				c0.1-3.9,1.5-9.9,1.1-13.4c-0.9-6.9-8.4-4.1-11.9-0.6c-8.5,8.2-9.8,15.9-12.1,27.1c-1.1,5.5-3.6,20.4-8,23.6
				c-5.3-5.6-2.8-16.8-4-23.6c-2-11.2-4.1-22.5-8.1-33.2c-2.4-6.4-7.1-17.7-13.7-21.1c-2.4-1.2-3.9-0.7-4.9,0.7
				c-2.3,3.4-1.4,12.2-1.3,15.6c0.4,8.3,1.5,16.5,3.3,24.6c2.7,11.9,6.2,23.5,9.1,35.3c3.4,14.2-0.6,38.5,12.9,48.1
				c4.9,3.5,10.1,3.5,14.8-0.2C652.7,657,656.2,631.6,658.8,615.8z M545.5,831.9c-12.1-2.8-15.7,7.3-24.5,11.8
				c-1.8,0.9-6.8,4-8.7,1.8c-2.5-3.1,9.4-16.2,10.7-19.5c3.3-8.1,5.4-16.8,7.5-25.2c4.1-16.7,6.7-33.8,8.3-50.9
				c1.3-14.2,3.2-31.1-0.7-45.1c-1.4-5.1-4.7-13.1-9.2-15.8c-2.7-1.6-5.9-1.2-9.4,3.1c-2.4,2.9-4.2,18.5-9.2,17.8
				c-9.6-1.5-9.4,30.9-9.8,35.6c-2,20.1-5.9,39.9-9.8,59.7c-1.9,9.8-3.8,19.6-5.3,29.4c-4.1,6.5-9,12.5-11.6,19.8
				c-5.2,14.5,10.4,37.8,26.2,30.1c11.1-5.4,24.4-10.7,32.2-20.4C535.6,859.8,560.3,835.3,545.5,831.9z M863.1,708.3
				c-7.9-5.1-27.8-5.7-34.7,1.4c-6.6,6.8-12.7,19.7-15.8,28.8c-5.8,17.1-8.2,35.7-16.9,51.7C784,772.7,773,753,763.6,734.1
				c-3.4-6.8-7.4-14-14-18.2c-4.9-3.1-13.5-4.2-16,2.7c-1.2,3.3,0,8.8,0.6,12.1c1.6,8.5,5.1,16.5,9.1,24.1
				c7.8,14.9,18.5,28.4,25.6,43.7c13.5,29,44.6,38.4,57,3.3c6.1-17.2,14.6-36.2,25.3-51c5.7-7.8,24.3-30.6,13.8-41
				C864.5,709.3,863.9,708.8,863.1,708.3z M958.1,776.9c-7.6-12.5-17.1-43.3-34.5-32.1c-18.2,11.7,7.3,41.2,10.7,56.4
				c7.3,8.2,10.5,23,19.8,28.9c4.2,2.6,10.1,4,15,2.6c0.6-0.2,1.2-0.4,1.7-0.6c6.7-3,5.8-9.5,5-15.8
				C973.9,802,965.4,789.1,958.1,776.9z M1106.5,815.1c-11.8-8.3-24.5-15.3-35.2-25.5c-8.5-8-20.2-25.7-30.7-15.2
				c-13.1,13.2,0.5,31.6,10.5,41.8c15.6,15.8,36.1,28.2,57.2,34.9c5.4,1.7,11.5,3.7,17.2,3.7c4.3,0,12.1-2.2,14.9-6.6
				c0.4-0.7,0.7-1.4,0.9-2.2C1145.1,828.2,1117,822.4,1106.5,815.1z M642.3,801.3c-1.5,0-2.6,0.4-3.4,1.1
				c-4.8,4.1,1.2,17.9,3.1,21.6c4.7,9.1,11.6,16.9,18.2,24.6c4.1,4.8,29,32.4,32,11.8c1.3-8.9-16.9-26.7-22.5-32.7
				C663.4,821.2,652.6,801.2,642.3,801.3z"/>
		</g>
	</g>
</g>
</svg>
